<svg xmlns="http://www.w3.org/2000/svg" version="1.1" xmlns:xlink="http://www.w3.org/1999/xlink" xmlns:svgjs="http://svgjs.dev/svgjs" width="1000" height="179" viewBox="0 0 1000 179"><g transform="matrix(1,0,0,1,-0.6060606060606233,-0.15481735211267278)"><svg viewBox="0 0 396 71" data-background-color="#141414" preserveAspectRatio="xMidYMid meet" height="179" width="1000" xmlns="http://www.w3.org/2000/svg" xmlns:xlink="http://www.w3.org/1999/xlink"><g id="tight-bounds" transform="matrix(1,0,0,1,0.2400000000000091,0.06140800000000013)"><svg viewBox="0 0 395.52 70.87718399999999" height="70.87718399999999" width="395.52"><g><svg viewBox="0 0 395.52 70.87718399999999" height="70.87718399999999" width="395.52"><g><svg viewBox="0 0 395.52 70.87718399999999" height="70.87718399999999" width="395.52"><g id="textblocktransform"><svg viewBox="0 0 395.52 70.87718399999999" height="70.87718399999999" width="395.52" id="textblock"><g><svg viewBox="0 0 395.52 70.87718399999999" height="70.87718399999999" width="395.52"><g transform="matrix(1,0,0,1,0,0)"><svg width="395.52" viewBox="4.15 -38 281.23 50.4" height="70.87718399999999" data-palette-color="#cfd7e1"><path d="M15.2-36.25L15.2-36.25Q22.6-36.25 28.1-31.95L28.1-31.95Q30.8-29.8 32.43-26.18 34.05-22.55 34.05-17.9 34.05-13.25 32.43-9.63 30.8-6 28.1-3.85L28.1-3.85Q22.6 0.45 15.2 0.45L15.2 0.45Q9.15 0.45 7-1.1 4.85-2.65 4.85-5.8L4.85-5.8 4.9-31.7Q4.9-33.55 4.15-34.5L4.15-34.5Q9.2-36.25 15.2-36.25ZM15.2-2.65L15.2-2.65Q21.25-2.65 25.4-6.58 29.55-10.5 29.55-17.88 29.55-25.25 25.4-29.15 21.25-33.05 15.2-33.05L15.2-33.05Q12.05-33.05 9.2-32.25L9.2-32.25 9.05-5.8Q9.05-4.6 9.35-4L9.35-4Q10.05-2.65 15.2-2.65ZM44.85-22.35L44.85-22.35 44.85-20.5Q46.95-25.85 51.8-25.85L51.8-25.85Q54.15-25.85 55.45-24.65 56.75-23.45 56.75-21.88 56.75-20.3 55.95-19.48 55.15-18.65 54.3-18.65 53.45-18.65 52.75-18.85L52.75-18.85Q52.85-19.35 52.85-20.15L52.85-20.15Q52.85-22.65 50.35-22.65L50.35-22.65Q48.7-22.65 47.1-21 45.5-19.35 44.85-15.95L44.85-15.95 44.85-3.1Q44.85-1.65 46.1-1.15L46.1-1.15Q45.05 0.45 43.5 0.45L43.5 0.45Q40.7 0.45 40.7-3.05L40.7-3.05 40.7-22.25Q40.7-23.7 39.45-24.25L39.45-24.25Q40.4-25.85 42.05-25.85L42.05-25.85Q44.85-25.85 44.85-22.35ZM64.1-14.65L73.45-15.4Q75.5-15.55 75.5-17.78 75.5-20 74.22-21.48 72.95-22.95 70.65-22.95 68.35-22.95 66.45-20.75 64.55-18.55 64.1-14.65L64.1-14.65ZM64-12.5Q64-7.6 66.12-5.25 68.25-2.9 72.2-2.9 76.15-2.9 78.75-5.5L78.75-5.5Q79.5-5.1 79.5-4.15L79.5-4.15Q79.5-2.5 77.1-1.03 74.7 0.45 71.4 0.45L71.4 0.45Q66.25 0.45 62.95-2.8 59.65-6.05 59.65-11.93 59.65-17.8 63.22-21.83 66.8-25.85 71.45-25.85L71.45-25.85Q75.15-25.85 77.47-23.3 79.8-20.75 79.8-17.5L79.8-17.5Q79.8-15.15 78.52-14.03 77.25-12.9 74.4-12.8L74.4-12.8 64-12.5ZM88.79-6.4L88.79-6.4Q88.79-2.8 92.72-2.8 96.64-2.8 99.19-6.25L99.19-6.25 99.19-12.2Q93.89-11.9 91.34-10.33 88.79-8.75 88.79-6.4ZM103.34-17.8L103.34-17.8 103.34-4.5Q103.34-1.85 105.79-1.5L105.79-1.5Q104.84 0.45 102.64 0.45L102.64 0.45Q99.49 0.45 99.19-3.6L99.19-3.6Q96.29 0.45 91.39 0.45L91.39 0.45Q88.29 0.45 86.29-1.25 84.29-2.95 84.29-5.95L84.29-5.95Q84.29-9.65 88.02-11.93 91.74-14.2 99.19-14.4L99.19-14.4 99.19-17.4Q99.19-20.5 98.09-21.98 96.99-23.45 94.62-23.45 92.24-23.45 91.04-22.48 89.84-21.5 89.84-20.28 89.84-19.05 90.54-18.3L90.54-18.3Q89.49-17.5 88.22-17.5 86.94-17.5 86.14-18.2 85.34-18.9 85.34-20.2L85.34-20.2Q85.34-22.55 88.04-24.2 90.74-25.85 94.69-25.85 98.64-25.85 100.99-23.73 103.34-21.6 103.34-17.8ZM149.84-17.25L149.84-17.25 149.84-3.1Q149.84-1.7 151.09-1.15L151.09-1.15Q150.19 0.45 148.49 0.45L148.49 0.45Q145.69 0.45 145.69-3.05L145.69-3.05 145.69-16.95Q145.69-22.2 141.09-22.2L141.09-22.2Q138.59-22.2 136.34-20.15 134.09-18.1 133.24-14.65L133.24-14.65 133.24-3.1Q133.24-1.7 134.54-1.15L134.54-1.15Q133.49 0.45 131.89 0.45L131.89 0.45Q129.14 0.45 129.14-3.05L129.14-3.05 129.14-16.95Q129.14-22.2 124.54-22.2L124.54-22.2Q122.04-22.2 119.79-20.2 117.54-18.2 116.69-14.85L116.69-14.85 116.69-3.1Q116.69-1.65 117.94-1.15L117.94-1.15Q116.89 0.45 115.34 0.45L115.34 0.45Q112.54 0.45 112.54-3.05L112.54-3.05 112.54-22.25Q112.54-23.7 111.29-24.25L111.29-24.25Q112.24-25.85 113.89-25.85L113.89-25.85Q116.69-25.85 116.69-22.35L116.69-22.35 116.69-19.75Q117.99-22.45 120.39-24.15 122.79-25.85 125.79-25.85 128.79-25.85 130.72-24.2 132.64-22.55 133.09-19.25L133.09-19.25Q134.24-22.1 136.74-23.98 139.24-25.85 142.52-25.85 145.79-25.85 147.82-23.68 149.84-21.5 149.84-17.25ZM195.79-29.45L195.79-29.45Q195.79-28.05 195.01-27.23 194.24-26.4 193.26-26.4 192.29-26.4 191.09-26.8L191.09-26.8Q191.29-27.6 191.29-28.35L191.29-28.35Q191.29-30.2 189.36-31.78 187.44-33.35 184.01-33.35 180.59-33.35 178.54-31.9 176.49-30.45 176.49-28.03 176.49-25.6 178.59-23.83 180.69-22.05 183.71-20.75 186.74-19.45 189.76-18.1 192.79-16.75 194.89-14.68 196.99-12.6 196.99-9.95L196.99-9.95Q196.99-5.5 193.11-2.53 189.24 0.45 183.84 0.45 178.44 0.45 174.89-1.98 171.34-4.4 171.34-8.1L171.34-8.1Q171.34-9.7 172.24-10.73 173.14-11.75 174.64-11.75 176.14-11.75 176.99-10.55L176.99-10.55Q175.84-9.5 175.84-7.6 175.84-5.7 177.94-4.2 180.04-2.7 183.71-2.7 187.39-2.7 190.09-4.6 192.79-6.5 192.79-9.25L192.79-9.25Q192.79-11 191.26-12.45 189.74-13.9 187.46-14.85 185.19-15.8 182.54-17 179.89-18.2 177.61-19.4 175.34-20.6 173.81-22.63 172.29-24.65 172.29-27.15L172.29-27.15Q172.29-31.2 175.86-33.83 179.44-36.45 184.39-36.45 189.34-36.45 192.56-34.4 195.79-32.35 195.79-29.45ZM225.43-17.25L225.43-17.25 225.43-3.1Q225.43-1.7 226.73-1.15L226.73-1.15Q225.68 0.45 224.08 0.45L224.08 0.45Q221.33 0.45 221.33-3.05L221.33-3.05 221.33-16.95Q221.33-22.2 216.73-22.2L216.73-22.2Q214.23-22.2 211.98-20.2 209.73-18.2 208.88-14.85L208.88-14.85 208.88-3.1Q208.88-1.65 210.13-1.15L210.13-1.15Q209.08 0.45 207.53 0.45L207.53 0.45Q204.73 0.45 204.73-3.05L204.73-3.05 204.73-34.45Q204.73-35.9 203.48-36.45L203.48-36.45Q204.33-38 206.08-38L206.08-38Q208.88-38 208.88-34.55L208.88-34.55 208.88-19.75Q210.18-22.45 212.58-24.15 214.98-25.85 218.21-25.85 221.43-25.85 223.43-23.68 225.43-21.5 225.43-17.25ZM249.56-20.38Q247.28-23 243.83-23 240.38-23 238.48-20.63 236.58-18.25 236.58-13.65L236.58-13.65Q236.58-7.7 238.91-5.03 241.23-2.35 244.68-2.35 248.13-2.35 249.98-4.75 251.83-7.15 251.83-11.75L251.83-11.75Q251.83-17.75 249.56-20.38ZM235.81-22.4Q239.28-25.85 244.23-25.85 249.18-25.85 252.66-22.38 256.13-18.9 256.13-12.68 256.13-6.45 252.66-3 249.18 0.45 244.23 0.45 239.28 0.45 235.81-3 232.33-6.45 232.33-12.7 232.33-18.95 235.81-22.4ZM273.78-2.95L273.78-2.95Q276.83-2.95 278.95-5.58 281.08-8.2 281.08-12.7 281.08-17.2 278.95-19.8 276.83-22.4 273.78-22.4L273.78-22.4Q269.48-22.4 267.28-18.3L267.28-18.3 267.28-6.4Q268.53-4.5 270.08-3.73 271.63-2.95 273.78-2.95ZM267.28-22.35L267.28-22.35 267.28-22.3Q269.88-25.85 274.4-25.85 278.93-25.85 282.15-22.43 285.38-19 285.38-12.75 285.38-6.5 282-3.05 278.63 0.4 274.25 0.4 269.88 0.4 267.28-2.5L267.28-2.5 267.28 8.85Q267.28 10.35 268.53 10.8L268.53 10.8Q267.48 12.4 265.93 12.4L265.93 12.4Q263.13 12.4 263.13 8.85L263.13 8.85 263.13-22.25Q263.13-23.7 261.88-24.25L261.88-24.25Q262.83-25.85 264.48-25.85L264.48-25.85Q267.28-25.85 267.28-22.35Z" opacity="1" transform="matrix(1,0,0,1,0,0)" fill="#cfd7e1" class="wordmark-text-0" data-fill-palette-color="primary" id="text-0"></path></svg></g></svg></g></svg></g></svg></g><g></g></svg></g><defs></defs></svg><rect width="395.52" height="70.87718399999999" fill="none" stroke="none" visibility="hidden"></rect></g></svg></g></svg>